<svg preserveAspectRatio="none" width="100%" height="100%" overflow="visible" style="display: block;" viewBox="0 0 24 24" fill="none" xmlns="http://www.w3.org/2000/svg">
<g id="bard-line">
<path id="Vector" d="M10.6164 17.7946C10.279 18.5672 9.20971 18.5672 8.87235 17.7946L7.9947 15.7844C7.21366 13.9956 5.80784 12.5716 4.05425 11.7932L1.63853 10.7209C0.870489 10.38 0.87049 9.2627 1.63853 8.92178L3.9788 7.88296C5.77748 7.08454 7.20852 5.60783 7.97622 3.75794L8.86525 1.61575C9.19514 0.820791 10.2936 0.820789 10.6235 1.61575L11.5125 3.75796C12.2802 5.60783 13.7112 7.08454 15.5099 7.88296L17.8502 8.92178C18.6182 9.2627 18.6182 10.38 17.8502 10.7209L15.4345 11.7932C13.6809 12.5716 12.2751 13.9956 11.494 15.7844L10.6164 17.7946ZM4.54151 9.82136C6.82735 10.836 8.68597 12.5038 9.74433 14.7986C10.8028 12.5038 12.6614 10.836 14.9472 9.82136C12.6341 8.79459 10.7696 7.04549 9.74434 4.7099C8.71914 7.0455 6.85462 8.79459 4.54151 9.82136ZM19.4034 22.6889L19.6502 22.1232C20.0902 21.1146 20.8827 20.3115 21.8715 19.8722L22.6319 19.5343C23.0432 19.3516 23.0432 18.7539 22.6319 18.5712L21.9141 18.2522C20.8998 17.8016 20.0931 16.9688 19.6606 15.9259L19.4072 15.3146C19.2305 14.8886 18.6415 14.8886 18.4648 15.3146L18.2114 15.9259C17.779 16.9688 16.9723 17.8016 15.958 18.2522L15.2401 18.5712C14.8289 18.7539 14.8289 19.3516 15.2401 19.5343L16.0005 19.8722C16.9894 20.3115 17.7818 21.1146 18.2218 22.1232L18.4687 22.6889C18.6493 23.103 19.2227 23.103 19.4034 22.6889ZM18.3765 19.0459L18.939 18.4873L19.4898 19.0459L18.939 19.5888L18.3765 19.0459Z" fill="#CDDAE8"/>
</g>
</svg>
