<svg preserveAspectRatio="none" width="100%" height="100%" overflow="visible" style="display: block;" viewBox="0 0 18.5 18.5" fill="none" xmlns="http://www.w3.org/2000/svg">
<g id="user-line">
<path id="Vector" d="M3.08398 16.957C3.08398 13.5513 5.84489 10.7904 9.25065 10.7904C12.6564 10.7904 15.4173 13.5513 15.4173 16.957H13.8757C13.8757 14.4027 11.805 12.332 9.25065 12.332C6.69633 12.332 4.62565 14.4027 4.62565 16.957H3.08398ZM9.25065 10.0195C6.69534 10.0195 4.62565 7.94984 4.62565 5.39453C4.62565 2.83922 6.69534 0.769531 9.25065 0.769531C11.806 0.769531 13.8757 2.83922 13.8757 5.39453C13.8757 7.94984 11.806 10.0195 9.25065 10.0195ZM9.25065 8.47786C10.9542 8.47786 12.334 7.09807 12.334 5.39453C12.334 3.69099 10.9542 2.3112 9.25065 2.3112C7.54711 2.3112 6.16732 3.69099 6.16732 5.39453C6.16732 7.09807 7.54711 8.47786 9.25065 8.47786Z" fill="white"/>
</g>
</svg>
