<svg width="230" height="55" viewBox="0 0 230 55" fill="none" xmlns="http://www.w3.org/2000/svg">
<path d="M57.4487 15.9702V17.9287H53.9519V28.1509H51.6902V17.9287H48.1934V15.9702H57.4509H57.4487Z" fill="black"/>
<path d="M60.8267 28.153V15.9702H63.0883V20.9973H69.1024V15.9702H71.3641V28.153H69.1024V22.9558H63.0883V28.153H60.8267Z" fill="black"/>
<path d="M84.3718 15.9699V17.9114H78.264V20.9778H84.0821V22.998H78.2384V26.192H84.4932V28.1505H76.0215V15.9678H84.3739L84.3718 15.9699Z" fill="black"/>
<path d="M94.4 27.6404V25.5968C95.6225 26.0519 97.0046 26.2795 98.5464 26.2795C100.418 26.2795 101.353 25.6543 101.353 24.406C101.353 23.498 100.778 23.0429 99.6304 23.0429H97.7201C95.2242 23.0429 93.9741 21.9073 93.9741 19.6362C93.9741 17.1376 95.7524 15.8872 99.3067 15.8872C100.672 15.8872 101.964 16.085 103.189 16.4826V18.5262C101.967 18.0711 100.672 17.8436 99.3067 17.8436C97.2601 17.8436 96.2358 18.439 96.2358 19.632C96.2358 20.54 96.7299 20.9951 97.7201 20.9951H99.6304C102.286 20.9951 103.615 22.1306 103.615 24.4017C103.615 26.9578 101.926 28.2358 98.5464 28.2358C97.0046 28.2358 95.6225 28.0381 94.4 27.6404Z" fill="black"/>
<path d="M109.891 15.9702V28.153H107.629V15.9702H109.891ZM118.476 15.9702L113.271 21.6522L119.021 28.153H115.89L111.173 22.4624V20.9973L115.711 15.9702H118.476Z" fill="black"/>
<path d="M124.232 15.9702V28.153H121.97V15.9702H124.232Z" fill="black"/>
<path d="M131.149 15.9699V26.192H135.996V28.1505H128.89V15.9678H131.151L131.149 15.9699Z" fill="black"/>
<path d="M142.485 15.9699V26.192H147.332V28.1505H140.226V15.9678H142.487L142.485 15.9699Z" fill="black"/>
<path d="M151.346 27.6404V25.5968C152.569 26.0519 153.951 26.2795 155.493 26.2795C157.365 26.2795 158.3 25.6543 158.3 24.406C158.3 23.498 157.725 23.0429 156.577 23.0429H154.666C152.171 23.0429 150.92 21.9073 150.92 19.6362C150.92 17.1376 152.699 15.8872 156.253 15.8872C157.618 15.8872 158.911 16.085 160.135 16.4826V18.5262C158.913 18.0711 157.618 17.8436 156.253 17.8436C154.206 17.8436 153.182 18.439 153.182 19.632C153.182 20.54 153.676 20.9951 154.666 20.9951H156.577C159.232 20.9951 160.561 22.1306 160.561 24.4017C160.561 26.9578 158.872 28.2358 155.493 28.2358C153.951 28.2358 152.569 28.0381 151.346 27.6404Z" fill="black"/>
<path d="M170.513 28.153V15.9702H172.86L176.998 25.2141L181.051 15.9702H183.312V28.153H181.221V19.6682L177.912 28.153H175.984L172.607 19.6682V28.153H170.517H170.513Z" fill="black"/>
<path d="M190.227 15.9702V28.153H187.965V15.9702H190.227Z" fill="black"/>
<path d="M194.885 28.153V15.9702H197.146L203.589 24.8463V15.9702H205.765V28.153H203.503L197.061 19.0877V28.153H194.885Z" fill="black"/>
<path d="M218.771 15.9699V17.9114H212.663V20.9778H218.481V22.998H212.637V26.192H218.892V28.1505H210.42V15.9678H218.773L218.771 15.9699Z" fill="black"/>
<path d="M75.8509 38.849C75.3057 39.0255 74.7158 39.1148 74.0811 39.1148C71.8685 39.1148 70.7632 38.0176 70.7632 35.8251C70.7632 33.7496 71.8685 32.7119 74.0811 32.7119C74.7158 32.7119 75.3057 32.8012 75.8509 32.9777V33.6837C75.3057 33.4775 74.7456 33.3754 74.1706 33.3754C72.4456 33.3754 71.5831 34.192 71.5831 35.8272C71.5831 37.5795 72.4456 38.4556 74.1706 38.4556C74.7456 38.4556 75.3057 38.3514 75.8509 38.1473V38.8533V38.849Z" fill="black"/>
<path d="M78.7876 36.6336V32.7549H79.6054V36.6336C79.6054 37.8457 80.2102 38.4539 81.4198 38.4539C82.6295 38.4539 83.2343 37.8479 83.2343 36.6336V32.7549H84.052V36.6336C84.052 38.2881 83.1746 39.1153 81.4198 39.1153C79.665 39.1153 78.7876 38.2881 78.7876 36.6336Z" fill="black"/>
<path d="M87.9599 32.7549V38.4093H91.2693V39.0727H87.1421V32.757H87.9599V32.7549Z" fill="black"/>
<path d="M96.8129 32.7549V33.4184H94.8217V39.0727H94.0039V33.4184H92.0127V32.7549H96.8129Z" fill="black"/>
<path d="M100.37 32.7549V39.0706H99.5518V32.7549H100.37Z" fill="black"/>
<path d="M109.284 32.7549L106.599 39.0706H105.691L102.993 32.7549H103.856L106.173 38.2221L108.432 32.7549H109.282H109.284Z" fill="black"/>
<path d="M111.322 39.0706H110.472L113.158 32.7549H114.065L116.763 39.0706H115.856L115.038 37.0823H112.945L113.17 36.4189H114.763L113.581 33.5566L111.322 39.0685V39.0706Z" fill="black"/>
<path d="M122.861 32.7549V33.4184H120.87V39.0727H120.052V33.4184H118.061V32.7549H122.861Z" fill="black"/>
<path d="M126.417 32.7549V39.0706H125.599V32.7549H126.417Z" fill="black"/>
<path d="M129.684 39.0706V32.7549H130.501L134.371 37.8436V32.7549H135.144V39.0706H134.326L130.457 33.9372V39.0706H129.684Z" fill="black"/>
<path d="M143.058 38.8235C142.547 39.017 141.997 39.1148 141.407 39.1148C139.116 39.1148 137.97 38.0176 137.97 35.8251C137.97 33.7496 139.075 32.7119 141.288 32.7119C141.923 32.7119 142.513 32.8012 143.058 32.9777V33.6837C142.513 33.4775 141.953 33.3754 141.378 33.3754C139.653 33.3754 138.79 34.192 138.79 35.8272C138.79 37.5795 139.64 38.4556 141.337 38.4556C141.608 38.4556 141.91 38.4195 142.24 38.3493V36.2036H143.058V38.8277V38.8235Z" fill="black"/>
<path d="M154.658 38.8235C154.147 39.017 153.597 39.1148 153.008 39.1148C150.716 39.1148 149.57 38.0176 149.57 35.8251C149.57 33.7496 150.676 32.7119 152.888 32.7119C153.523 32.7119 154.113 32.8012 154.658 32.9777V33.6837C154.113 33.4775 153.553 33.3754 152.978 33.3754C151.253 33.3754 150.39 34.192 150.39 35.8272C150.39 37.5795 151.24 38.4556 152.937 38.4556C153.208 38.4556 153.51 38.4195 153.84 38.3493V36.2036H154.658V38.8277V38.8235Z" fill="black"/>
<path d="M157.637 39.0706V32.7549H160.335C161.539 32.7549 162.139 33.2589 162.139 34.269C162.139 35.0898 161.551 35.698 160.374 36.0935L162.546 39.0706H161.466L159.454 36.2296V35.6958C160.663 35.5045 161.268 35.0409 161.268 34.3051C161.268 33.7224 160.932 33.4311 160.259 33.4311H158.455V39.0706H157.637Z" fill="black"/>
<path d="M164.82 35.921C164.82 33.7796 165.879 32.71 167.996 32.71C170.112 32.71 171.124 33.7796 171.124 35.921C171.124 38.0624 170.083 39.115 167.996 39.115C165.909 39.115 164.82 38.0496 164.82 35.921ZM167.996 38.4537C169.505 38.4537 170.259 37.6009 170.259 35.8955C170.259 34.19 169.505 33.3734 167.996 33.3734C166.486 33.3734 165.683 34.2134 165.683 35.8955C165.683 37.5775 166.454 38.4537 167.996 38.4537Z" fill="black"/>
<path d="M173.505 32.7549H174.297L175.185 38.2498L176.972 32.7549H177.79L179.704 38.2498L180.707 32.7549H181.463L180.273 39.0706H179.159L177.372 33.7799L175.643 39.0706H174.542L173.503 32.7549H173.505Z" fill="black"/>
<path d="M188.34 32.7549V33.4184H186.349V39.0727H185.531V33.4184H183.54V32.7549H188.34Z" fill="black"/>
<path d="M190.945 39.0706V32.7549H191.763V35.5385H195.5V32.7549H196.318V39.0706H195.5V36.1998H191.763V39.0706H190.945Z" fill="black"/>
<path d="M34.7235 36.559C36.9288 36.559 38.7166 34.7748 38.7166 32.5739C38.7166 30.373 36.9288 28.5889 34.7235 28.5889C32.5182 28.5889 30.7305 30.373 30.7305 32.5739C30.7305 34.7748 32.5182 36.559 34.7235 36.559Z" fill="black"/>
<path d="M25.6086 38.7852C27.1377 38.7575 28.2983 39.9058 28.3026 41.3774C28.3068 42.8298 27.1419 43.9972 25.6853 43.9994C24.2563 43.9994 23.0892 42.834 23.0871 41.3965C23.0701 40.0036 24.1647 38.8128 25.6086 38.7852Z" fill="black"/>
<path d="M24.6571 32.7716C25.3642 32.7631 25.9392 33.3202 25.9498 34.0241C25.9605 34.7195 25.3961 35.3021 24.7061 35.3128C23.9863 35.3234 23.407 34.7726 23.3943 34.0666C23.3815 33.3564 23.9437 32.7822 24.6571 32.7737V32.7716Z" fill="black"/>
<path d="M18.0955 19.296C15.8295 19.2896 13.9342 17.75 13.3911 15.6618C13.6488 15.3024 13.9257 14.9579 14.2238 14.6305V14.724C14.2728 14.7708 14.2323 14.841 14.2728 14.8963C14.3345 14.9048 14.3963 14.8771 14.4581 14.8665C15.2205 14.741 15.5953 15.43 15.4015 16.0063C15.3206 16.2445 15.1694 16.421 14.9415 16.5294C14.8968 16.5507 14.8606 16.5677 14.9032 16.6272C15.131 16.9377 15.3759 17.229 15.6741 17.4736C15.7337 17.4502 15.7465 17.397 15.7742 17.3588C16.0127 17.0419 16.4493 16.8973 16.8305 17.01C17.1606 17.1078 17.3735 17.38 17.3969 17.7373C17.4055 17.8712 17.3969 18.0052 17.3693 18.1371C17.3586 18.186 17.3607 18.2285 17.4204 18.2413C17.8037 18.3199 18.187 18.3476 18.581 18.2732C18.5938 18.2009 18.564 18.1392 18.5533 18.0796C18.4724 17.6395 18.6683 17.2758 19.0666 17.1355C19.4882 16.9866 19.9461 17.1546 20.1484 17.531C20.1697 17.5693 20.1889 17.6097 20.2081 17.648C20.4274 17.5884 20.8044 17.2737 21.16 16.8527C21.1408 16.8016 21.0855 16.791 21.0471 16.7633C20.7596 16.5528 20.6148 16.2657 20.6404 15.9149C20.6723 15.4704 20.9896 15.177 21.4475 15.1451C21.5668 15.1366 21.686 15.1451 21.8053 15.1663C21.916 15.1855 21.9224 15.1812 21.9394 15.0685C21.9842 14.7538 22.0268 14.4369 21.982 14.118C21.965 13.9968 21.9693 13.9968 21.85 14.0031C21.7052 14.0095 21.5625 14.018 21.4177 13.9882C20.9151 13.8862 20.6681 13.5013 20.7937 13.0037C20.8597 12.74 21.0003 12.521 21.2005 12.3381C21.2367 12.3041 21.2835 12.2828 21.3091 12.2275C21.1004 11.9511 20.8682 11.6937 20.6042 11.4641C20.5424 11.4109 20.5169 11.4386 20.4764 11.4896C20.3039 11.7214 20.0718 11.8532 19.7885 11.9C19.3945 11.9659 19.0517 11.7767 18.9047 11.4471C19.6778 11.1366 20.4615 10.9006 21.2558 10.7368C22.3036 11.6299 22.9659 12.9569 22.9638 14.4391C22.9595 17.1291 20.7809 19.3045 18.0976 19.2981L18.0955 19.296Z" fill="black"/>
<path d="M23.558 25.3287C24.3119 24.729 25.5301 24.8523 26.1455 25.754C26.169 25.788 26.1924 25.8241 26.2073 25.8645C26.3308 26.2197 26.4309 26.5769 26.367 26.9597C26.2733 27.5317 25.9688 27.94 25.4364 28.1697C25.0488 28.3355 24.6463 28.3611 24.2374 28.2654C23.5602 28.108 22.9362 27.6104 22.9405 26.6641C22.9405 26.1218 23.1577 25.6455 23.558 25.3287Z" fill="black"/>
<path d="M19.7203 13.8565C19.814 14.1435 19.8374 14.4391 19.7927 14.739C19.6671 15.6087 19.0133 16.1829 18.1337 16.1914C17.3159 16.1978 16.611 15.6746 16.3896 14.8878C16.2277 14.3115 16.3406 13.7905 16.7409 13.3461C17.1243 12.9187 17.6162 12.7124 18.1912 12.7252C18.9068 12.7401 19.5009 13.1845 19.7203 13.8565Z" fill="black"/>
<path d="M32.9754 20.9099C32.0491 20.6781 31.3271 20.1635 30.8692 19.3151C30.5796 18.777 30.4816 18.1965 30.5136 17.5905C30.5455 16.978 30.7202 16.4081 31.0801 15.9084C31.7296 15.0046 32.6347 14.5921 33.7336 14.5814C33.8507 14.5814 33.97 14.5751 34.0871 14.5814C34.2085 14.5921 34.332 14.6112 34.4513 14.6367C35.1392 14.7771 35.7461 15.1343 36.1954 15.6277C36.4382 15.9807 36.6554 16.3507 36.8492 16.7313C37.043 17.2991 37.075 17.935 36.8897 18.5835C36.4851 20.0062 34.9816 21.4139 32.9712 20.9121L32.9754 20.9099Z" fill="black"/>
<path d="M16.9198 35.164C17.5395 34.6706 18.5404 34.7727 19.0452 35.5127C19.0643 35.5404 19.0835 35.5701 19.0963 35.602C19.1985 35.8934 19.2794 36.1868 19.2283 36.5015C19.1516 36.9715 18.9003 37.3075 18.4638 37.4946C18.1465 37.6307 17.8142 37.652 17.4799 37.5733C16.924 37.4436 16.4108 37.0353 16.4151 36.257C16.4151 35.8104 16.594 35.4213 16.9219 35.1597L16.9198 35.164Z" fill="black"/>
<path d="M12.9673 28.9714C13.1718 29.0012 13.291 29.1181 13.323 29.3223C13.3443 29.452 13.3187 29.5775 13.2868 29.7008C13.274 29.7454 13.2612 29.788 13.2442 29.8305C13.0994 29.5434 12.9546 29.2542 12.8076 28.9671C12.8587 28.9629 12.912 28.9629 12.9673 28.9714Z" fill="black"/>
<path d="M12.7246 25.4799C13.4934 24.9504 14.3346 24.776 15.2461 24.9823C15.951 25.1397 16.5388 25.4948 16.9604 26.086C17.4673 26.7962 17.6164 27.5936 17.4545 28.4443C17.2351 29.5926 16.1789 30.7855 14.5901 30.7855C14.473 30.777 14.3176 30.7728 14.1642 30.7494C13.9896 30.7239 13.8128 30.6813 13.6382 30.6239C13.5892 30.5261 13.5424 30.4283 13.4934 30.3305C13.5999 30.3815 13.7085 30.4198 13.8256 30.4325C13.9044 30.441 13.9044 30.4389 13.9108 30.3581C13.9193 30.2497 13.9406 30.1433 13.9875 30.0455C14.1493 29.7074 14.5476 29.6138 14.8414 29.8499C15.0054 29.9796 15.08 30.1582 15.1119 30.3602C15.114 30.3772 15.114 30.3921 15.1162 30.4091C15.1247 30.4708 15.1268 30.4729 15.1928 30.4602C15.2546 30.4474 15.3142 30.4347 15.3739 30.4176C15.5698 30.3602 15.7508 30.2667 15.9361 30.1731C15.9297 30.1306 15.902 30.1008 15.8828 30.0689C15.7976 29.9286 15.721 29.784 15.6954 29.6181C15.6805 29.5224 15.689 29.4288 15.7167 29.3353C15.77 29.163 15.9084 29.0652 16.1043 29.0546C16.345 29.0439 16.5643 29.1184 16.7709 29.2332C16.7986 29.2481 16.822 29.2757 16.8646 29.2778C16.9966 29.0461 17.0882 28.793 17.1904 28.5357C17.1329 28.5251 17.0818 28.5166 17.0328 28.5038C16.8561 28.4613 16.7006 28.3805 16.5835 28.238C16.345 27.9424 16.4259 27.5639 16.7624 27.3895C16.8689 27.3342 16.9839 27.3087 17.101 27.2938C17.1968 27.2811 17.1968 27.2789 17.1819 27.1832C17.1585 27.0408 17.1138 26.9025 17.0541 26.7707C17.003 26.6601 16.9519 26.5517 16.8944 26.4475C16.8582 26.4475 16.8454 26.473 16.8241 26.4879C16.6367 26.6197 16.4301 26.6963 16.198 26.6899C15.9361 26.6835 15.77 26.5155 15.7614 26.2539C15.7551 26.0285 15.8445 25.8393 15.9744 25.6628C16.0383 25.5756 16.0383 25.5777 15.9531 25.516C15.7529 25.3714 15.5293 25.2779 15.2887 25.2311C15.2205 25.2183 15.2184 25.2205 15.212 25.2885C15.195 25.431 15.1588 25.565 15.0757 25.684C14.8457 26.0179 14.3857 26.0243 14.1493 25.6947C14.0577 25.5692 14.013 25.4246 14.0088 25.2715C14.0045 25.1843 13.9917 25.1843 13.9151 25.1971C13.8341 25.2098 13.7553 25.2311 13.6765 25.2587C13.4998 25.3225 13.3379 25.4161 13.1612 25.4884C13.1654 25.5267 13.191 25.5501 13.208 25.5756C13.2911 25.7074 13.3614 25.8435 13.4018 25.9945C13.4189 26.0562 13.4252 26.1179 13.4252 26.1795C13.4252 26.4581 13.2165 26.6452 12.9376 26.6218C12.7374 26.6048 12.5542 26.5325 12.3817 26.4368C12.3562 26.4219 12.3306 26.4092 12.3051 26.3922C12.2795 26.3752 12.2646 26.3837 12.2497 26.4071C12.1134 26.6261 12.0026 26.8558 11.9473 27.1088C11.9388 27.145 11.9473 27.162 11.9877 27.1683C12.0687 27.179 12.1496 27.1939 12.2284 27.2215C12.3327 27.2598 12.4243 27.3129 12.501 27.3916C12.6799 27.5745 12.7118 27.8446 12.5776 28.0636C12.5393 28.1274 12.4925 28.1806 12.4392 28.2252C12.3902 28.1253 12.3413 28.0253 12.2923 27.9275C12.1027 27.5405 11.9366 27.1471 11.7939 26.7452C11.9004 26.5091 12.0239 26.2837 12.1645 26.0668C12.3136 25.835 12.5031 25.6415 12.731 25.4842L12.7246 25.4799Z" fill="black"/>
<path d="M16.9052 41.6729C17.6122 41.6644 18.1872 42.2216 18.1979 42.9255C18.2085 43.6208 17.6442 44.2035 16.9542 44.2141C16.2343 44.2248 15.6551 43.674 15.6423 42.968C15.6295 42.2577 16.1917 41.6836 16.9052 41.6751V41.6729Z" fill="black"/>
<path d="M14.4859 26.7003C15.1397 26.6578 15.7126 27.1448 15.7147 27.838C15.7147 28.2569 15.5209 28.5865 15.1567 28.7907C14.9118 28.9268 14.652 28.9863 14.3709 28.9566C13.7704 28.8949 13.4296 28.376 13.3977 27.9614C13.3466 27.3192 13.8428 26.7429 14.4859 26.7003Z" fill="black"/>
<path d="M17.7655 44.5503C19.3968 44.5481 21.0281 44.5567 22.6594 44.5567C22.6594 44.5588 22.6594 44.5609 22.6594 44.5652C22.6871 44.5652 22.7148 44.5652 22.7446 44.5652C22.8042 44.4035 22.8638 44.2441 22.9426 44.0931C23.0938 43.8017 23.064 43.5763 22.8425 43.3382C22.7446 43.2318 22.6636 43.1851 22.521 43.1978C22.1674 43.2318 21.8139 43.2446 21.4625 43.2786C21.3177 43.2935 21.2666 43.2382 21.2368 43.1043C21.1431 42.7045 21.0366 42.3089 20.9365 41.9113V41.7412C21.2261 41.6157 21.5094 41.4668 21.8097 41.369C22.1376 41.2627 22.3101 41.0862 22.308 40.7268C22.308 40.6056 22.2931 40.5269 22.2015 40.4482C21.914 40.2037 21.6329 39.9506 21.3454 39.7061C21.2687 39.6402 21.2474 39.5891 21.3071 39.4956C21.5371 39.1277 21.7628 38.7555 21.9822 38.3813C22.0333 38.2962 22.0801 38.275 22.176 38.3132C22.4294 38.4174 22.6849 38.5152 22.9405 38.6109C23.0938 38.6684 23.2535 38.7938 23.4026 38.764C23.5517 38.7343 23.6752 38.5875 23.8094 38.4919C23.8136 38.4897 23.8158 38.4855 23.82 38.4834C23.8818 38.4493 23.8967 38.4004 23.8924 38.3302C23.8648 37.9262 23.8435 37.52 23.8115 37.116C23.803 37.0139 23.8328 36.9714 23.9286 36.9501C24.3503 36.8502 24.772 36.746 25.1936 36.6375C25.2959 36.6099 25.3448 36.6354 25.3874 36.7311C25.5429 37.0947 25.709 37.4562 25.8666 37.8199C25.9007 37.8964 25.9411 37.939 26.0306 37.9475C26.1626 37.9581 26.2925 37.9772 26.4224 38.007C26.5055 38.0261 26.5523 37.9985 26.6056 37.939C26.8654 37.6391 27.1316 37.3435 27.3893 37.0437C27.4553 36.9671 27.5043 36.9459 27.6001 37.0054C27.9686 37.2351 28.3412 37.4584 28.716 37.6795C28.8012 37.7306 28.8225 37.7752 28.7842 37.8709C28.6735 38.1367 28.5989 38.4196 28.4648 38.6726C28.3029 38.9788 28.3348 39.2212 28.5734 39.4658C28.6543 39.5487 28.7203 39.5955 28.8353 39.5849C29.2016 39.5551 29.57 39.536 29.9363 39.5019C30.0662 39.4892 30.1344 39.5211 30.1642 39.6551C30.26 40.074 30.3644 40.4886 30.4687 40.9054C30.49 40.9905 30.4623 41.0352 30.3835 41.0692C30.1237 41.1798 29.8724 41.3222 29.6041 41.4052C29.2719 41.5094 29.0909 41.6922 29.0973 42.0538C29.0973 42.1601 29.0994 42.2388 29.1867 42.3132C29.4827 42.562 29.7702 42.8214 30.0641 43.0745C30.1365 43.1361 30.1578 43.1851 30.1024 43.2744C29.8703 43.6465 29.6424 44.0229 29.421 44.4014C29.3677 44.4907 29.3166 44.4992 29.225 44.461C28.9716 44.3568 28.7161 44.2568 28.4584 44.1632C28.305 44.108 28.1474 43.9782 27.9962 44.0123C27.8472 44.0463 27.7258 44.193 27.5895 44.2866C27.5235 44.3312 27.5043 44.3823 27.5107 44.4631C27.5128 44.495 27.5149 44.5269 27.5171 44.5588C28.4009 44.5588 29.2825 44.5652 30.1663 44.5737C30.7541 44.58 31.0161 44.4801 30.9138 43.8103C30.8159 43.168 30.8308 42.5024 30.8435 41.8496C30.8606 40.9203 31.376 40.3568 32.2491 40.0867C33.1904 39.7954 34.1636 39.7869 35.1305 39.7912C37.3325 39.8018 38.6486 38.4366 38.2206 36.4993C38.1397 36.4653 38.0587 36.4313 37.9778 36.3951C37.9033 36.3632 37.8479 36.3632 37.7819 36.4121C37.5923 36.5461 37.4007 36.6758 37.2069 36.8055C37.1579 36.8374 37.1387 36.8736 37.1409 36.9374C37.1664 37.5519 37.1877 38.1665 37.2111 38.7832C37.2154 38.8704 37.1856 38.9087 37.0961 38.9278C36.4658 39.0575 35.8375 39.1894 35.2114 39.3318C35.0773 39.3616 35.024 39.3276 34.975 39.2064C34.7642 38.6705 34.5427 38.1389 34.3298 37.6051C34.2914 37.5094 34.2446 37.4541 34.1338 37.4392C33.9251 37.4116 33.7207 37.3691 33.5162 37.3244C33.4311 37.3074 33.3757 37.3287 33.3182 37.3925C32.9114 37.8326 32.5004 38.2664 32.0958 38.7066C32.0276 38.7811 31.9786 38.7853 31.8956 38.73C31.3547 38.3749 30.8116 38.0219 30.2643 37.6753C30.1685 37.6136 30.1536 37.5647 30.1983 37.4626C30.4325 36.9267 30.6561 36.3887 30.8904 35.8529C30.933 35.755 30.9266 35.6806 30.8648 35.5956C30.7392 35.4276 30.6199 35.2553 30.5049 35.0788C30.456 35.0044 30.4006 34.9852 30.3154 34.9874C29.7361 35.015 29.1548 35.032 28.5755 35.0661C28.4349 35.0746 28.3817 35.0299 28.354 34.8938C28.2284 34.2771 28.0985 33.6626 27.9622 33.0501C27.9345 32.931 27.9622 32.8779 28.075 32.8311C28.6202 32.6184 29.1611 32.393 29.7042 32.1804C29.8 32.1421 29.8426 32.0889 29.8575 31.989C29.8873 31.7827 29.9257 31.5765 29.9704 31.3702C29.9896 31.283 29.9704 31.232 29.9065 31.1724C29.4635 30.7641 29.0227 30.3516 28.5798 29.9433C28.518 29.8859 28.4988 29.8433 28.5499 29.7647C28.912 29.2118 29.2719 28.6589 29.6297 28.1017C29.6829 28.0209 29.7276 28.0103 29.8149 28.0486C30.3644 28.2846 30.916 28.5164 31.4675 28.7525C31.5506 28.7886 31.6145 28.7886 31.689 28.7333C31.8509 28.6142 32.0148 28.4973 32.1852 28.3931C32.296 28.325 32.3215 28.2442 32.3151 28.1187C32.2853 27.5361 32.2683 26.9513 32.2448 26.3665C32.2406 26.2836 32.2725 26.2432 32.3513 26.2283C32.4961 26.2006 32.6388 26.1687 32.7836 26.1368C33.3011 26.0241 33.8208 25.9093 34.3383 25.7945H34.4192C34.662 26.3942 34.9048 26.9938 35.1454 27.5935C35.171 27.6594 35.2093 27.6934 35.2774 27.7062C35.5138 27.7487 35.7523 27.7891 35.9887 27.8381C36.0633 27.8529 36.0952 27.8104 36.1335 27.7679C36.5424 27.3319 36.9513 26.896 37.3581 26.4558C37.4262 26.3814 37.4752 26.3623 37.5689 26.4239C38.1141 26.7833 38.6614 27.1363 39.2109 27.4872C39.296 27.5425 39.3088 27.5914 39.2684 27.6828C39.0384 28.2102 38.8211 28.7418 38.5869 29.2692C38.5315 29.3968 38.54 29.4882 38.6231 29.5967C38.7381 29.7434 38.8424 29.9008 38.9425 30.0581C38.9958 30.1411 39.0575 30.1666 39.1534 30.1623C39.6964 30.1411 40.2395 30.1283 40.7825 30.1049C41.3256 29.6264 41.1531 29.0629 40.3864 28.0146C40.1287 27.6616 39.9179 27.2724 39.6368 26.9385C38.7402 25.8732 38.2291 24.7589 38.0225 23.4681C37.9288 23.3554 37.8287 23.249 37.7159 23.1555C37.5263 22.9981 37.3134 22.8854 37.0642 22.8705C36.6234 22.845 36.3848 23.03 36.2656 23.3766C36.223 23.4978 36.2017 23.6254 36.1953 23.753C36.1804 24.0486 36.2273 24.3357 36.3273 24.6143C36.3529 24.6844 36.3401 24.7185 36.2698 24.7397C36.2209 24.7546 36.174 24.778 36.1272 24.795C35.7012 24.9503 35.2604 25.0438 34.8111 25.1055C34.6556 25.1268 34.6556 25.1268 34.6428 24.9779C34.6215 24.71 34.5661 24.4505 34.4149 24.2209C34.0891 23.7233 33.4545 23.6233 32.9923 23.9997C32.7666 24.1826 32.6431 24.425 32.5898 24.7057C32.5664 24.8248 32.56 24.9481 32.5451 25.0651C32.5025 25.0778 32.4663 25.0693 32.4323 25.0651C31.9467 24.9758 31.4739 24.8375 31.0139 24.6589C30.8968 24.6143 30.8989 24.6121 30.9436 24.4845C31.065 24.1358 31.1204 23.7785 31.048 23.4107C30.9671 22.996 30.7179 22.7514 30.3367 22.7153C30.1429 22.6983 29.9598 22.7472 29.7915 22.8471C29.6659 22.9216 29.5594 23.0151 29.4529 23.113C29.34 23.2172 29.2272 23.3235 29.0994 23.4107C28.9993 23.4787 28.9993 23.4787 28.9077 23.3958C28.5648 23.0768 28.2497 22.7323 27.9387 22.3857C27.8514 22.2879 27.8493 22.2857 27.9387 22.1879C28.0772 22.0369 28.2198 21.8902 28.3583 21.7371C28.4754 21.6074 28.5712 21.4607 28.6266 21.2927C28.7608 20.8844 28.6138 20.5037 28.2539 20.3272C28.1858 20.2932 28.1134 20.2656 28.0367 20.2485C27.6704 20.1656 27.3126 20.2039 26.9634 20.3336C26.9165 20.3506 26.8739 20.3868 26.8079 20.3719C26.7185 20.0784 26.6226 19.7828 26.546 19.4787C26.4906 19.2597 26.4586 19.0364 26.4373 18.811C26.4267 18.6962 26.4288 18.6962 26.5396 18.6707C26.6248 18.6515 26.7099 18.6367 26.7951 18.6133C27.0997 18.5282 27.3914 18.4176 27.6193 18.188C27.9409 17.8647 27.9387 17.3969 27.615 17.0737C27.5149 16.9737 27.3999 16.8993 27.2764 16.8355C27.0656 16.727 26.842 16.6547 26.6141 16.591C26.4778 16.5527 26.4757 16.5527 26.5012 16.4123C26.5374 16.2167 26.5715 16.0189 26.6162 15.8233C26.6823 15.532 26.7802 15.2513 26.9378 14.9961C27.0038 14.8897 27.0038 14.8919 27.1039 14.9408C27.3105 15.0407 27.532 15.0854 27.7577 15.0981C27.9813 15.1088 28.1985 15.0811 28.403 14.9833C28.6436 14.8685 28.7885 14.6856 28.814 14.4155C28.8353 14.2029 28.7927 14.0094 28.6905 13.8244C28.6074 13.6691 28.4924 13.5373 28.3732 13.4097C28.2837 13.3119 28.1943 13.2119 28.1006 13.1162C28.0559 13.0695 28.0559 13.0333 28.1006 12.9865C28.1985 12.8887 28.2901 12.7845 28.3881 12.6867C28.6543 12.4145 28.9311 12.1551 29.2378 11.9296C29.3251 11.8637 29.3294 11.8659 29.3933 11.9509C29.4912 12.0828 29.5977 12.2082 29.7191 12.3188C29.8895 12.4783 30.079 12.6101 30.3111 12.6654C30.769 12.776 31.1928 12.625 31.3078 12.0742C31.3163 12.0296 31.3248 11.9828 31.3312 11.9382C31.3398 11.8786 31.3419 11.8169 31.344 11.7574C30.5411 11.4129 29.6786 11.1365 28.765 10.9366C27.4042 10.6389 26.0519 10.4624 24.7209 10.439C24.5143 10.7112 24.3077 10.9855 24.0969 11.2555C24.0032 11.3768 23.9883 11.4916 24.05 11.6298C24.131 11.8084 24.2034 11.9892 24.2779 12.1699C24.3248 12.2826 24.4036 12.3486 24.5249 12.3698C25.0169 12.457 25.5088 12.5485 26.0008 12.6378C26.2223 12.6782 26.2606 12.7143 26.2925 12.9376C26.3415 13.2991 26.3926 13.6606 26.416 14.0243C26.416 14.054 26.4288 14.0838 26.4352 14.1136C26.4352 14.2135 26.4352 14.3135 26.4352 14.4134C26.0327 14.5857 25.6153 14.7175 25.2064 14.8727C25.0765 14.9216 24.9466 14.9663 24.8167 15.0152C24.7102 15.0535 24.6442 15.1279 24.625 15.2406C24.5782 15.4937 24.5313 15.7467 24.4866 15.9998C24.4674 16.1125 24.5143 16.1997 24.5973 16.2741C24.9658 16.6165 25.3342 16.961 25.7026 17.3033C25.8411 17.433 25.8517 17.4947 25.7644 17.667C25.5727 18.0391 25.381 18.4112 25.1894 18.7813C25.1085 18.9386 25.0467 18.9684 24.8742 18.9301C24.3865 18.8217 23.8988 18.7132 23.4133 18.6005C23.2876 18.5707 23.1875 18.5984 23.1002 18.6898C22.9235 18.8769 22.7446 19.062 22.5635 19.247C22.4741 19.3384 22.4486 19.4383 22.4826 19.5638C22.6083 20.0465 22.7297 20.5292 22.8532 21.0141C22.9 21.1991 22.8745 21.2586 22.7105 21.3522C22.3463 21.5585 21.98 21.7647 21.6159 21.9689C21.4711 22.0518 21.4008 22.0412 21.2794 21.9179C20.928 21.5627 20.5766 21.2076 20.2273 20.8503C20.1294 20.7504 20.0229 20.7143 19.8845 20.7483C19.646 20.8078 19.4053 20.8589 19.1647 20.9099C19.0348 20.9375 18.956 21.0098 18.9155 21.1353C18.7643 21.5946 18.6088 22.0518 18.4598 22.5111C18.4257 22.6132 18.381 22.6983 18.2915 22.7578C18.1211 22.7578 17.9529 22.7578 17.7825 22.7578C17.5674 22.7132 17.346 22.7195 17.1309 22.6898C17.0329 22.6749 16.9328 22.6685 16.8327 22.6558C16.7156 22.6409 16.6474 22.5771 16.624 22.458C16.5197 21.954 16.411 21.4521 16.3067 20.9482C16.279 20.8142 16.2109 20.727 16.0831 20.6824C15.8744 20.6058 15.6635 20.5292 15.4591 20.4442C15.3249 20.3889 15.2163 20.4144 15.1077 20.5037C14.7265 20.8142 14.3411 21.1225 13.9577 21.4309C13.8193 21.5415 13.7554 21.5436 13.6106 21.433C13.2571 21.1672 12.9057 20.8993 12.5543 20.6313C12.4201 20.5292 12.401 20.4612 12.4606 20.3038C12.6395 19.8339 12.8162 19.3639 12.9994 18.894C13.0548 18.7515 13.042 18.6281 12.9461 18.5069C12.8333 18.3666 12.7289 18.2177 12.6246 18.071C12.55 17.9668 12.4542 17.9221 12.3286 17.937C12.2625 17.9434 12.1944 17.9519 12.1284 17.9583C11.1722 20.189 10.8804 22.6962 11.3532 25.0991C11.4661 25.1374 11.5874 25.1565 11.7131 25.1544C11.9452 25.148 12.1028 25.0204 12.1624 24.7971C12.2029 24.6419 12.1816 24.4909 12.1326 24.3421C12.0879 24.2102 12.0261 24.0869 11.958 23.9678C11.9111 23.8827 11.9239 23.8913 11.9857 23.8572C12.1156 23.7849 12.2434 23.7126 12.3754 23.6425C12.5223 23.5638 12.6736 23.4915 12.8333 23.4362C12.9206 23.4064 12.9206 23.4064 12.9483 23.4915C13.0036 23.6531 13.0888 23.7956 13.206 23.9189C13.2911 24.0082 13.387 24.0805 13.5041 24.1252C13.7384 24.2145 13.9811 24.1252 14.1068 23.9083C14.1473 23.836 14.1749 23.7594 14.1941 23.6786C14.2303 23.5276 14.2473 23.3745 14.2537 23.2214C14.2601 23.0853 14.2537 23.1044 14.3815 23.1002C14.6882 23.0917 14.9927 23.13 15.2973 23.1597C15.3462 23.164 15.3569 23.181 15.3505 23.2278C15.3271 23.3575 15.3313 23.4893 15.3398 23.6212C15.3505 23.7658 15.3824 23.9061 15.457 24.0337C15.5443 24.1847 15.6763 24.2634 15.8531 24.2698C15.9936 24.274 16.1193 24.2336 16.2322 24.1528C16.3323 24.0805 16.411 23.9891 16.4813 23.887C16.5367 23.8062 16.5878 23.7211 16.6389 23.6361C16.656 23.6063 16.6709 23.5893 16.7071 23.6127C16.8966 23.7318 17.0989 23.8275 17.2842 23.9529C17.3758 24.0167 17.461 24.089 17.5376 24.172C17.5717 24.2102 17.5781 24.24 17.544 24.2825C17.4886 24.3527 17.4375 24.425 17.3886 24.4973C17.2863 24.6483 17.2523 24.8163 17.2714 24.9949C17.2948 25.2267 17.429 25.3841 17.6548 25.4415C17.7144 25.4564 17.7761 25.467 17.84 25.4649C18.0636 25.4606 18.266 25.3947 18.447 25.2607C18.4725 25.2416 18.4896 25.2097 18.53 25.2139C18.5961 25.3309 18.6599 25.45 18.726 25.5669C18.8175 25.7307 18.9027 25.8966 18.9687 26.0731C19.0135 26.1921 19.0113 26.1921 18.8899 26.2368C18.6344 26.3282 18.4427 26.4877 18.3554 26.7493C18.2511 27.0597 18.3873 27.3596 18.6898 27.4872C18.8133 27.5403 18.9432 27.5595 19.0752 27.5574C19.1604 27.5552 19.2456 27.5446 19.3308 27.5382C19.3308 27.7551 19.3308 27.972 19.3308 28.1889C19.3031 28.24 19.2988 28.2953 19.2946 28.3505C19.286 28.4335 19.2711 28.5122 19.2498 28.593C19.2307 28.6589 19.2307 28.6589 19.1625 28.6483C19.0582 28.6312 18.9538 28.6185 18.8473 28.6249C18.6812 28.6355 18.5215 28.6674 18.3788 28.7567C18.2574 28.8311 18.1829 28.9375 18.1595 29.0799C18.1318 29.2501 18.1808 29.3968 18.2873 29.5308C18.3661 29.6307 18.464 29.7073 18.5662 29.7796C18.6386 29.8306 18.7111 29.8838 18.7856 29.9305C18.826 29.9561 18.8282 29.9794 18.8005 30.0177C18.7473 30.09 18.7111 30.1708 18.6727 30.2516C18.5854 30.4324 18.4725 30.5983 18.349 30.7556C18.3256 30.7875 18.2979 30.8152 18.2681 30.8407C18.2148 30.8853 18.1935 30.8875 18.1382 30.8471C18.0935 30.8152 18.0466 30.7811 18.0061 30.7429C17.8954 30.6408 17.7634 30.5898 17.6186 30.5642C17.2586 30.5004 16.9775 30.7259 16.9648 31.0916C16.9562 31.317 17.0286 31.5169 17.1543 31.6998C17.1735 31.7296 17.2033 31.753 17.216 31.7955C16.9094 32.006 16.575 32.1634 16.2322 32.3016C16.2066 32.2718 16.2045 32.2378 16.196 32.2059C16.1342 32.0018 16.0277 31.8295 15.8446 31.7104C15.4825 31.4723 15.0587 31.619 14.9203 32.0273C14.9097 32.0592 14.9033 32.0911 14.8948 32.123C14.8649 32.2527 14.8692 32.3845 14.8756 32.5142C14.8777 32.578 14.8756 32.5802 14.8117 32.5823C14.7286 32.5823 14.6435 32.5823 14.5604 32.5823C14.7798 33.1118 14.9821 33.6477 15.1567 34.1963C15.1631 34.2006 15.1673 34.2027 15.1737 34.2069C15.2674 34.2622 15.3675 34.3005 15.474 34.3133C15.7189 34.3452 15.9106 34.1878 15.9234 33.9411C15.9276 33.871 15.9191 33.8029 15.9021 33.7349C15.8531 33.5392 15.7594 33.3712 15.6039 33.2266C15.8424 33.0629 16.0788 32.9098 16.3429 32.8013C16.3961 32.7801 16.4089 32.8013 16.4238 32.8417C16.4707 32.9714 16.5282 33.0969 16.6112 33.2096C16.673 33.2947 16.7454 33.367 16.8412 33.4138C17.0223 33.5009 17.2927 33.4882 17.3992 33.1969C17.412 33.165 17.4205 33.1309 17.429 33.0969C17.4673 32.9225 17.461 32.7482 17.4354 32.5717C17.4248 32.4972 17.4269 32.4951 17.4972 32.493C17.6526 32.4909 17.8081 32.4866 17.9635 32.4866C18.0636 32.4866 18.1637 32.4866 18.2638 32.5079C18.3086 32.5185 18.3192 32.5355 18.3107 32.5802C18.2915 32.6865 18.2936 32.7928 18.3 32.9013C18.3086 33.0267 18.3384 33.1479 18.4044 33.2564C18.4704 33.3648 18.562 33.4371 18.6919 33.4542C18.8772 33.4776 19.022 33.4116 19.1348 33.2649C19.22 33.1543 19.2711 33.0267 19.3159 32.8949C19.3457 32.8098 19.3457 32.8077 19.4309 32.8353C19.6928 32.9183 19.8994 33.0927 20.1294 33.2224C20.1251 33.2351 20.1251 33.2394 20.123 33.2415C20.106 33.2628 20.0889 33.284 20.074 33.3074C19.9462 33.4882 19.8504 33.6817 19.8312 33.905C19.8099 34.1517 19.9207 34.2899 20.1656 34.3303C20.2167 34.3388 20.2678 34.3367 20.321 34.3282C20.4573 34.3069 20.5766 34.2431 20.6895 34.1708C20.7619 34.124 20.8322 34.0772 20.9088 34.0262C21.0174 34.1942 21.1388 34.3452 21.2261 34.5195C21.256 34.577 21.2794 34.6386 21.3007 34.7003C21.3326 34.7917 21.3305 34.7917 21.2474 34.8364C21.1921 34.8662 21.1367 34.8917 21.0813 34.9214C21.0132 34.9576 20.9472 34.9937 20.8875 35.0405C20.7278 35.1575 20.6575 35.3149 20.6916 35.5105C20.7257 35.6955 20.8598 35.7869 21.0302 35.8358C21.1921 35.8826 21.3582 35.8826 21.5243 35.8592C21.6137 35.8465 21.618 35.8465 21.6308 35.9358C21.6648 36.1867 21.6521 36.4376 21.6223 36.6886C21.618 36.729 21.601 36.7396 21.5605 36.729C21.4242 36.6971 21.2879 36.6865 21.1495 36.7013C20.7619 36.7439 20.5873 37.1011 20.7896 37.4329C20.8854 37.5902 21.0323 37.6859 21.207 37.7369C21.2432 37.7476 21.2815 37.7497 21.322 37.7731C21.2347 38.0495 21.0558 38.2771 20.911 38.5259C20.8769 38.5004 20.8492 38.4791 20.8215 38.46C20.6171 38.3196 20.3935 38.2345 20.14 38.2537C19.9377 38.2686 19.8121 38.3983 19.7929 38.6003C19.7823 38.7279 19.8057 38.8491 19.8738 38.9576C19.9207 39.0341 19.9718 39.1064 20.0229 39.1808C20.0854 39.2744 20.0698 39.3481 19.9761 39.402C19.9015 39.4445 19.827 39.4913 19.7524 39.5338C19.6502 39.5934 19.548 39.6508 19.4394 39.6955C19.357 39.7295 19.3038 39.704 19.2797 39.6189C19.2307 39.436 19.1391 39.2808 18.9687 39.1851C18.6961 39.0277 18.381 39.1447 18.2723 39.4382C18.2212 39.5742 18.2234 39.7146 18.2447 39.8571C18.2532 39.9102 18.266 39.9634 18.2766 40.0208C18.2021 40.0378 18.1339 40.0251 18.0658 40.0272C17.8762 40.0357 17.6867 40.0506 17.4972 40.0229C17.3886 40.0059 17.3864 40.0081 17.4098 39.9039C17.4354 39.7805 17.4439 39.6572 17.4269 39.5338C17.3822 39.2064 17.0989 39.032 16.788 39.1468C16.5708 39.2255 16.4387 39.3871 16.3685 39.6019C16.3557 39.6444 16.345 39.687 16.328 39.7401C16.0703 39.5828 15.7998 39.4615 15.5698 39.268C15.7743 39.0766 15.8808 38.8555 15.8893 38.5897C15.8936 38.394 15.8041 38.2643 15.6444 38.2154C15.5784 39.268 15.3931 40.3185 15.1716 41.3648C15.1993 41.3435 15.2291 41.3478 15.2717 41.3648C15.3995 41.4243 15.5358 41.4668 15.6572 41.5349C15.7977 41.6157 15.9085 41.5987 16.0277 41.4966C16.081 41.452 16.1044 41.4116 16.1001 41.3414C16.0895 41.1628 16.0916 40.9841 16.0852 40.8055C16.0831 40.7438 16.1023 40.7119 16.1661 40.7013C16.3727 40.663 16.5772 40.6184 16.7816 40.5737C16.8455 40.5588 16.8668 40.5886 16.8881 40.6396C16.9413 40.78 17.0095 40.9182 17.0521 41.0607C17.0925 41.1989 17.1756 41.2542 17.314 41.2712C17.4013 41.2818 17.4546 41.2627 17.5099 41.201C17.6249 41.0734 17.7463 40.9522 17.8613 40.8246C17.9039 40.7757 17.938 40.7736 17.9912 40.8097C18.1616 40.9246 18.3341 41.0373 18.5087 41.1479C18.562 41.1819 18.5748 41.2159 18.5471 41.2733C18.4874 41.403 18.4448 41.5434 18.3703 41.6667C18.2851 41.8092 18.3192 41.9198 18.415 42.0367C18.4576 42.0878 18.496 42.1112 18.562 42.1069C18.7366 42.0984 18.9112 42.0963 19.088 42.0857C19.1668 42.0814 19.1987 42.1112 19.2115 42.1856C19.2477 42.377 19.2882 42.5684 19.3308 42.7598C19.3478 42.8299 19.3308 42.8682 19.2605 42.8937C19.0901 42.9575 18.9219 43.0277 18.7515 43.0936C18.6961 43.1149 18.6685 43.1489 18.6599 43.2042C18.6536 43.251 18.6472 43.2999 18.6344 43.3467C18.6173 43.4083 18.6386 43.4487 18.6855 43.4891C18.8197 43.6104 18.9496 43.7401 19.0837 43.8613C19.1327 43.9059 19.1327 43.94 19.0986 43.9931C18.9836 44.1633 18.8686 44.3355 18.76 44.5099C18.7238 44.5652 18.6898 44.5715 18.6323 44.546C18.5045 44.4865 18.3682 44.444 18.2468 44.3759C18.1041 44.2951 17.9891 44.3079 17.8677 44.4142C17.8209 44.4567 17.7932 44.4907 17.7974 44.5588V44.563L17.7655 44.5503ZM22.3591 34.1006C22.5295 34.0368 22.6977 33.9645 22.866 33.9007C22.9213 33.8795 22.9511 33.8497 22.9597 33.7923C22.966 33.7455 22.9724 33.6966 22.9852 33.6498C23.0023 33.5881 22.9831 33.5477 22.9362 33.5073C22.8021 33.3861 22.6722 33.2564 22.538 33.1352C22.4911 33.0927 22.4826 33.0608 22.5188 33.0055C22.636 32.8353 22.7488 32.6631 22.8574 32.4887C22.8958 32.4271 22.932 32.4228 22.9916 32.4526C23.1194 32.5121 23.2557 32.5546 23.3771 32.6227C23.5176 32.7035 23.6284 32.6865 23.7476 32.5844C23.8009 32.5398 23.8243 32.4994 23.82 32.4292C23.8094 32.2506 23.8115 32.0719 23.8051 31.8933C23.803 31.8316 23.8222 31.7997 23.8861 31.7891C24.0926 31.7508 24.2971 31.7062 24.5015 31.6615C24.5654 31.6466 24.5867 31.6764 24.608 31.7274C24.6612 31.8678 24.7294 32.006 24.772 32.1485C24.8124 32.2867 24.8955 32.342 25.0339 32.359C25.1212 32.3696 25.1745 32.3505 25.2298 32.2888C25.3448 32.1612 25.4662 32.04 25.5812 31.9124C25.6238 31.8635 25.6579 31.8614 25.7111 31.8976C25.8815 32.0124 26.054 32.1251 26.2286 32.2357C26.2819 32.2697 26.2947 32.3037 26.267 32.3611C26.2073 32.4909 26.1648 32.6312 26.0902 32.7545C26.005 32.897 26.0391 33.0076 26.1349 33.1246C26.1775 33.1756 26.2159 33.199 26.2819 33.1947C26.4565 33.1862 26.6311 33.1841 26.8079 33.1735C26.8867 33.1692 26.9186 33.199 26.9314 33.2734C26.9676 33.4648 27.0081 33.6562 27.0507 33.8476C27.0677 33.9177 27.0507 33.956 26.9804 33.9815C26.81 34.0453 26.6418 34.1155 26.4714 34.1814C26.416 34.2027 26.3884 34.2367 26.3798 34.292C26.3735 34.3388 26.3671 34.3877 26.3543 34.4345C26.3373 34.4961 26.3585 34.5366 26.4054 34.577C26.5396 34.6982 26.6695 34.8279 26.8036 34.9491C26.8526 34.9938 26.8526 35.0278 26.8186 35.0809C26.7035 35.2511 26.5885 35.4233 26.4799 35.5977C26.4437 35.653 26.4097 35.6593 26.3522 35.6338C26.2244 35.5743 26.0881 35.5318 25.9667 35.4637C25.824 35.3829 25.709 35.3957 25.5876 35.502C25.5408 35.5445 25.5131 35.5785 25.5173 35.6466C25.528 35.8252 25.5259 36.0038 25.5344 36.1803C25.5386 36.2548 25.5067 36.2824 25.4385 36.2973C25.2618 36.3356 25.0808 36.359 24.9061 36.4164H24.7613C24.6847 36.2293 24.608 36.0421 24.5313 35.855C24.476 35.721 24.2289 35.6742 24.1267 35.7806C24.0032 35.9103 23.8797 36.0379 23.7604 36.1697C23.7178 36.2165 23.6837 36.2229 23.6305 36.1867C23.4623 36.0719 23.294 35.9613 23.1215 35.855C23.0619 35.8167 23.0427 35.7827 23.0768 35.7146C23.1385 35.5892 23.179 35.451 23.2472 35.3297C23.3281 35.1894 23.3068 35.0767 23.2046 34.9597C23.1641 34.9129 23.13 34.8896 23.0683 34.8917C22.8894 34.9002 22.7105 34.9002 22.5337 34.9087C22.4635 34.9129 22.4251 34.8917 22.4123 34.8194C22.374 34.6216 22.3336 34.4238 22.2888 34.2261C22.2739 34.1602 22.2952 34.1261 22.357 34.1027L22.3591 34.1006ZM22.2697 29.4818C22.2782 29.1799 22.0993 29.0055 21.7948 28.997C21.6329 28.9927 21.4881 29.0438 21.3518 29.1246C21.2347 29.1926 21.1218 29.2628 21.0068 29.3351C20.9621 29.3628 20.9344 29.3585 20.9046 29.3117C20.8066 29.1501 20.7044 28.9906 20.6064 28.829C20.5425 28.7248 20.4957 28.6121 20.4595 28.4951C20.4318 28.4016 20.4318 28.3994 20.5255 28.3739C20.7065 28.325 20.8726 28.2463 21.0153 28.123C21.109 28.0422 21.1835 27.9465 21.2261 27.8295C21.3092 27.5956 21.2325 27.383 21.0196 27.2533C20.9685 27.2214 20.9152 27.198 20.8598 27.181C20.6639 27.1172 20.4637 27.1172 20.2614 27.1491C20.2039 27.1576 20.1507 27.1895 20.0889 27.1767C20.0847 27.1576 20.0804 27.1427 20.0783 27.1257C20.0506 26.8024 20.0612 26.4792 20.0783 26.156C20.0825 26.0709 20.0889 26.0645 20.1805 26.0816C20.3402 26.1113 20.4978 26.1135 20.6575 26.1007C20.7981 26.0901 20.9301 26.0539 21.0515 25.9774C21.1857 25.8902 21.2538 25.7668 21.2581 25.6095C21.2645 25.4266 21.1835 25.2862 21.0515 25.1672C20.9216 25.0502 20.7683 24.9715 20.6171 24.8886C20.4935 24.822 20.4673 24.7263 20.5383 24.6015C20.6618 24.3825 20.7853 24.1613 20.928 23.9529C20.9642 23.8998 20.9961 23.8913 21.0515 23.9295C21.1623 24.004 21.2773 24.0763 21.3923 24.1443C21.5051 24.2124 21.6265 24.257 21.7585 24.274C22.0588 24.3144 22.291 24.1209 22.3059 23.8211C22.3101 23.736 22.2995 23.6531 22.2803 23.5723C22.2207 23.3341 22.1057 23.1278 21.9183 22.9556C22.2079 22.7578 22.4975 22.5707 22.8191 22.4388C22.883 22.4133 22.9 22.4388 22.9171 22.4899C22.9724 22.6494 23.0448 22.8004 23.1449 22.9365C23.2195 23.0385 23.3089 23.1278 23.4261 23.1853C23.6454 23.2916 23.9755 23.2746 24.1054 22.9216C24.1203 22.8833 24.131 22.8408 24.1416 22.8004C24.1885 22.5877 24.1821 22.3751 24.148 22.1624C24.1331 22.071 24.1373 22.0688 24.2247 22.0667C24.4142 22.0646 24.6037 22.0582 24.7933 22.0603C24.9147 22.0603 25.0382 22.0603 25.1574 22.0858C25.2107 22.0986 25.2235 22.1199 25.2149 22.173C25.1915 22.3028 25.1936 22.4325 25.2022 22.5622C25.2128 22.7153 25.249 22.862 25.3278 22.9939C25.4087 23.1257 25.5195 23.215 25.6792 23.2363C25.9049 23.2661 26.0817 23.1831 26.218 23.0045C26.3223 22.8684 26.3841 22.7132 26.4373 22.5537C26.4735 22.4495 26.4736 22.4495 26.5779 22.4814C26.8952 22.5813 27.1486 22.794 27.4276 22.9535C27.4234 22.9705 27.4234 22.9747 27.4212 22.9769C27.4021 23.0045 27.3808 23.03 27.3595 23.0577C27.204 23.2767 27.0869 23.5127 27.0635 23.7849C27.0379 24.0848 27.1721 24.2549 27.4702 24.3017C27.5341 24.3123 27.5959 24.308 27.6576 24.2995C27.8237 24.274 27.9685 24.1953 28.107 24.106C28.1943 24.0486 28.2816 23.9912 28.3732 23.9295C28.5052 24.1337 28.6543 24.3187 28.7586 24.5292C28.7948 24.5994 28.8247 24.6759 28.8502 24.7504C28.8885 24.8609 28.8864 24.8631 28.7842 24.9141C28.7182 24.9503 28.65 24.9822 28.5819 25.0183C28.501 25.0608 28.42 25.1076 28.3455 25.1629C28.1517 25.3054 28.0644 25.4989 28.1091 25.7349C28.1496 25.9603 28.3135 26.0709 28.5223 26.1305C28.7203 26.1879 28.9205 26.1879 29.1228 26.1581C29.2314 26.1411 29.2357 26.1432 29.2506 26.2517C29.2932 26.5579 29.2761 26.8641 29.2399 27.1682C29.2336 27.2171 29.2144 27.2299 29.1654 27.2192C29.0014 27.1788 28.8332 27.1661 28.6649 27.1852C28.1943 27.2362 27.9792 27.6722 28.2284 28.0762C28.3455 28.2697 28.5223 28.3824 28.7373 28.4462C28.7821 28.459 28.8289 28.4611 28.8758 28.4909C28.7693 28.829 28.5521 29.1033 28.3774 29.4053C28.337 29.3755 28.3029 29.35 28.2688 29.3266C28.0197 29.1565 27.7492 29.0523 27.4404 29.0757C27.1955 29.0948 27.04 29.2522 27.0187 29.4967C27.006 29.652 27.0336 29.7987 27.1167 29.9305C27.1742 30.0241 27.2381 30.1134 27.2977 30.2027C27.3744 30.3161 27.3559 30.4055 27.2423 30.4707C27.1508 30.5238 27.0613 30.5791 26.9719 30.6323C26.8484 30.7046 26.7227 30.7748 26.5907 30.83C26.4899 30.8726 26.4253 30.8414 26.3969 30.7365C26.3373 30.5132 26.2244 30.3261 26.0199 30.207C25.6877 30.0177 25.3065 30.1581 25.1723 30.5153C25.1106 30.6812 25.1127 30.8534 25.1383 31.0257C25.1489 31.0916 25.1638 31.1554 25.1766 31.2256C25.0872 31.2468 25.002 31.2298 24.9189 31.2341C24.6889 31.2447 24.4568 31.2639 24.2268 31.2277C24.0948 31.2086 24.0926 31.2086 24.1203 31.0831C24.1523 30.9342 24.1629 30.7833 24.1416 30.6323C24.0884 30.2325 23.7412 30.022 23.3643 30.1623C23.1002 30.2601 22.9405 30.4558 22.8532 30.7173C22.8361 30.7684 22.8234 30.8194 22.8042 30.8875C22.489 30.694 22.161 30.5494 21.8821 30.3133C22.1312 30.0815 22.2611 29.8093 22.2697 29.4882V29.4818Z" fill="black"/>
</svg>
